<svg width="60" height="60" viewBox="0 0 60 60" fill="none" xmlns="http://www.w3.org/2000/svg">
<path d="M47.0002 50.643V14.2142C47.0002 13.5434 46.4567 12.9999 45.7859 12.9999H39.5066C39.0005 11.5685 37.5919 10.5713 35.9803 10.5713H34.6494C34.1481 9.15788 32.7978 8.14273 31.2144 8.14273H28.7858C27.2024 8.14273 25.8521 9.15788 25.3513 10.5713H24.0331C22.4283 10.5713 21.0216 11.5865 20.5029 12.9999H14.2143C13.5435 12.9999 13 13.5434 13 14.2142V50.643C13 51.3138 13.5435 51.8573 14.2143 51.8573H45.7859C46.4567 51.8573 47.0002 51.3138 47.0002 50.643ZM24.0331 12.9999H26.3572C27.028 12.9999 27.5715 12.4564 27.5715 11.7856C27.5715 11.1163 28.116 10.5713 28.7858 10.5713H31.2144C31.8842 10.5713 32.4287 11.1163 32.4287 11.7856C32.4287 12.4564 32.9722 12.9999 33.643 12.9999H35.9803C36.601 12.9999 37.1508 13.4084 37.2596 13.9505C37.3616 14.4614 37.1484 14.8165 37.0119 14.9826C36.7798 15.2663 36.4368 15.4285 36.0716 15.4285H23.9286C23.5823 15.4285 23.2632 15.2871 23.0296 15.0307C22.7969 14.7747 22.6867 14.4405 22.7197 14.0908C22.7785 13.4793 23.355 12.9999 24.0331 12.9999ZM44.5716 49.4287H15.4286V15.4285H20.4985C20.6583 15.8812 20.9046 16.3033 21.2329 16.6642C21.9221 17.4224 22.9047 17.8571 23.9286 17.8571H36.0716C37.1678 17.8571 38.1946 17.3709 38.8902 16.5223C39.1607 16.192 39.3652 15.8214 39.5041 15.4285H44.5716V49.4287Z" fill="#343434"/>
<path d="M31.2142 22.7142H19.0712C18.4005 22.7142 17.8569 23.2578 17.8569 23.9285C17.8569 24.5993 18.4005 25.1428 19.0712 25.1428H31.2142C31.8849 25.1428 32.4285 24.5993 32.4285 23.9285C32.4285 23.2578 31.8849 22.7142 31.2142 22.7142Z" fill="#343434"/>
<path d="M31.2142 27.5714H19.0712C18.4005 27.5714 17.8569 28.1149 17.8569 28.7857C17.8569 29.4565 18.4005 30 19.0712 30H31.2142C31.8849 30 32.4285 29.4565 32.4285 28.7857C32.4285 28.1149 31.8849 27.5714 31.2142 27.5714Z" fill="#343434"/>
<path d="M31.2142 32.4286H19.0712C18.4005 32.4286 17.8569 32.9721 17.8569 33.6429C17.8569 34.3137 18.4005 34.8572 19.0712 34.8572H31.2142C31.8849 34.8572 32.4285 34.3137 32.4285 33.6429C32.4285 32.9721 31.8849 32.4286 31.2142 32.4286Z" fill="#343434"/>
<path d="M31.2142 37.2858H19.0712C18.4005 37.2858 17.8569 37.8293 17.8569 38.5001C17.8569 39.1709 18.4005 39.7144 19.0712 39.7144H31.2142C31.8849 39.7144 32.4285 39.1709 32.4285 38.5001C32.4285 37.8293 31.8849 37.2858 31.2142 37.2858Z" fill="#343434"/>
<path d="M31.2142 42.1429H19.0712C18.4005 42.1429 17.8569 42.6864 17.8569 43.3572C17.8569 44.028 18.4005 44.5715 19.0712 44.5715H31.2142C31.8849 44.5715 32.4285 44.028 32.4285 43.3572C32.4285 42.6864 31.8849 42.1429 31.2142 42.1429Z" fill="#343434"/>
<path d="M34.8574 25.1428C34.8574 27.518 35.144 30.6587 35.5875 33.145C36.2752 36.9987 37.0917 38.5001 38.5003 38.5001C39.9089 38.5001 40.7254 36.9987 41.4132 33.145C41.8566 30.6587 42.1432 27.518 42.1432 25.1428C42.1432 23.1339 40.5092 21.5 38.5003 21.5C36.4914 21.5 34.8574 23.1339 34.8574 25.1428ZM39.7146 25.1428C39.7146 28.692 39.1079 32.9644 38.5003 35.0597C37.8927 32.9644 37.286 28.692 37.286 25.1428C37.286 24.4735 37.8305 23.9286 38.5003 23.9286C39.1701 23.9286 39.7146 24.4735 39.7146 25.1428Z" fill="#FFC709"/>
<path d="M38.5004 40.9286C37.1612 40.9286 36.0718 42.0181 36.0718 43.3572C36.0718 44.6964 37.1612 45.7858 38.5004 45.7858C39.8395 45.7858 40.929 44.6964 40.929 43.3572C40.929 42.0181 39.8395 40.9286 38.5004 40.9286Z" fill="#FFC709"/>
</svg>
