<svg width="60" height="60" viewBox="0 0 60 60" fill="none" xmlns="http://www.w3.org/2000/svg">
<path d="M51 50.4059V24.7809C51 24.4103 50.8099 24.0131 50.5193 23.7805L31.3005 8.40547C30.8326 8.03135 30.1679 8.03135 29.7 8.40547L10.4812 23.7805C10.1901 24.0131 10 24.4103 10 24.7809V50.4059C10 51.1136 10.5735 51.6871 11.2812 51.6871H49.7188C50.4265 51.6871 51 51.1136 51 50.4059ZM30.5 11.0469L47.6677 24.7809L30.5 38.5148L13.3323 24.7809L30.5 11.0469ZM48.4375 49.1246H12.5625V27.4469L29.6995 41.1563C29.7579 41.2029 29.8194 41.2439 29.8835 41.2793C30.2668 41.4899 30.7327 41.4899 31.116 41.2793C31.1801 41.2444 31.2416 41.2034 31.3 41.1563L48.4375 27.4469V49.1246Z" fill="#343434"/>
<path d="M31.7816 29.9059V24.7809V22.7493L33.8137 24.7809L34.7198 25.687C34.9694 25.9371 35.2974 26.0621 35.6254 26.0621C35.9534 26.0621 36.2814 25.9371 36.5315 25.687C37.0322 25.1868 37.0322 24.3755 36.5315 23.8753L31.4065 18.7503C30.9063 18.2496 30.0945 18.2496 29.5948 18.7503L24.4698 23.8753C23.9691 24.3755 23.9691 25.1868 24.4698 25.687C24.97 26.1877 25.7818 26.1877 26.2815 25.687L27.1876 24.7809L29.2196 22.7493V24.7809V29.9059C29.2196 30.6136 29.7931 31.1871 30.5009 31.1871C31.2086 31.1871 31.7816 30.6136 31.7816 29.9059Z" fill="#FFC709"/>
</svg>
