<svg width="60" height="60" viewBox="0 0 60 60" fill="none" xmlns="http://www.w3.org/2000/svg">
<path d="M31.5661 20.2595L30.8257 23.0172C30.6388 23.7156 31.0938 24.4229 31.8437 24.5975C31.9579 24.6241 32.0715 24.6366 32.184 24.6366C32.8108 24.6366 33.3816 24.241 33.5405 23.6489L34.9396 18.4369C35.0957 17.8557 34.7835 17.2235 34.2076 16.9551L28.6113 14.3491C27.9196 14.0269 27.0801 14.2881 26.7343 14.9318C26.389 15.5754 26.6694 16.3578 27.3599 16.6799L30.1648 17.9855C19.5995 22.3334 13.1593 30.1092 11.5806 40.3613C8.97886 40.809 7 42.934 7 45.4842C7 48.3582 9.51051 50.6963 12.5963 50.6963C15.6821 50.6963 18.1926 48.3582 18.1926 45.4842C18.1926 43.1951 16.5971 41.25 14.3894 40.5516C15.9116 31.2376 21.8577 24.1826 31.5661 20.2595ZM15.3945 45.4842C15.3945 46.9212 14.1392 48.0903 12.5963 48.0903C11.0534 48.0903 9.79816 46.9212 9.79816 45.4842C9.79816 44.0473 11.0534 42.8782 12.5963 42.8782C14.1392 42.8782 15.3945 44.0473 15.3945 45.4842Z" fill="#343434"/>
<path d="M34.5719 40.6538C34.0251 40.1445 33.1398 40.1445 32.5936 40.6538L29.3852 43.6418L26.1774 40.6543C25.6307 40.1451 24.7453 40.1451 24.1991 40.6543C23.6529 41.1635 23.6524 41.988 24.1991 42.4967L27.4069 45.4843L24.1991 48.4718C23.6524 48.981 23.6524 49.8056 24.1991 50.3143C24.4722 50.5692 24.8298 50.6963 25.188 50.6963C25.5462 50.6963 25.9038 50.5692 26.1774 50.3148L29.3852 47.3267L32.593 50.3143C32.8667 50.5692 33.2243 50.6963 33.5825 50.6963C33.9406 50.6963 34.2982 50.5692 34.5719 50.3148C35.1187 49.8056 35.1187 48.981 34.5719 48.4723L31.3635 45.4843L34.5713 42.4967C35.1181 41.9875 35.1181 41.163 34.5719 40.6538Z" fill="#343434"/>
<path d="M51.3605 25.0175C50.8137 24.5083 49.9284 24.5083 49.3822 25.0175L46.1738 28.0056L42.966 25.018C42.4192 24.5088 41.5339 24.5088 40.9877 25.018C40.4415 25.5273 40.4409 26.3518 40.9877 26.8605L44.1955 29.848L40.9877 32.8356C40.4409 33.3448 40.4409 34.1693 40.9877 34.678C41.2608 34.9329 41.6184 35.0601 41.9766 35.0601C42.3347 35.0601 42.6923 34.9329 42.966 34.6786L46.1738 31.6905L49.3816 34.678C49.6553 34.9329 50.0129 35.0601 50.371 35.0601C50.7292 35.0601 51.0868 34.9329 51.3605 34.6786C51.9072 34.1693 51.9072 33.3448 51.3605 32.8361L48.1521 29.848L51.3599 26.8605C51.9067 26.3513 51.9067 25.5267 51.3605 25.0175Z" fill="#343434"/>
<path d="M7.40958 19.0424C7.68324 19.2968 8.04084 19.424 8.39901 19.424C8.75717 19.424 9.11478 19.2968 9.38844 19.0424L12.5962 16.0544L15.804 19.0419C16.0777 19.2968 16.4353 19.424 16.7935 19.424C17.1516 19.424 17.5092 19.2968 17.7829 19.0424C18.3297 18.5332 18.3297 17.7087 17.7829 17.2L14.5745 14.2119L17.7823 11.2244C18.3291 10.7152 18.3291 9.89061 17.7823 9.38191C17.2356 8.87322 16.3502 8.8727 15.804 9.38191L12.5962 12.3695L9.38844 9.38191C8.84168 8.8727 7.95634 8.8727 7.41014 9.38191C6.86394 9.89113 6.86338 10.7157 7.41014 11.2244L10.6179 14.2119L7.41014 17.1995C6.86338 17.7087 6.86338 18.5332 7.40958 19.0424Z" fill="#343434"/>
<path d="M50.7807 9.38142L49.132 10.9169L44.7747 14.9755L42.1601 12.5404L41.5664 11.9874C41.0196 11.4782 40.1343 11.4782 39.5881 11.9874C39.0419 12.4967 39.0413 13.3212 39.5881 13.8299L43.7853 17.7389C44.059 17.9938 44.4166 18.121 44.7747 18.121C45.1329 18.121 45.4905 17.9938 45.7642 17.7395L52.7596 11.2244C53.3063 10.7152 53.3063 9.89064 52.7596 9.38194C52.2128 8.87324 51.3275 8.87272 50.7807 9.38142Z" fill="#FFC709"/>
</svg>
