<svg width="36" height="58" viewBox="0 0 36 58" fill="none" xmlns="http://www.w3.org/2000/svg">
<path d="M13.6998 56.3C14.4998 59.3 18.4998 56.8 18.1998 53.2C17.1998 51.2 17.7998 49.3 20.5998 41.2C22.1998 36.3 27.7998 23.7 30.9998 17.3C33.2998 12.7 33.8998 12.2 34.3998 9.70003C35.4998 7.80003 34.9998 7.30003 34.0998 6.30002C33.5998 5.30003 32.3998 4.80003 31.8998 4.80003C31.3998 4.80003 30.9998 6.30003 27.6998 13.7C26.0998 16.3 24.4998 20.2 23.3998 22.2C22.8998 23.7 21.6998 25.8 21.6998 26.3C21.6998 26.8 20.5998 27.3 19.5998 27.3C18.5998 27.8 16.1998 28.3 13.6998 28.8C8.99983 30.2 6.49983 30.2 5.69983 29.8C5.19983 29.3 5.19983 28.8 6.69983 24.2C9.39983 19.3 12.0998 15.3 15.7998 10.2C17.3998 8.30003 18.9998 6.30003 18.9998 5.80003C18.9998 5.30003 19.4998 5.30003 19.4998 5.30003C19.9998 5.30003 19.0998 2.20003 18.5998 1.20003C18.1998 0.700027 16.6998 1.20003 15.6998 1.70003C13.5998 3.70002 5.09983 16.3 3.99983 18.8C3.99983 19.3 3.49983 19.8 3.49983 20.2C3.49983 20.7 1.79983 23.7 0.699829 26.3C-0.40017 27.3 0.399831 31.2 1.39983 32.2C3.49983 35.8 6.79983 36.3 13.4998 34.7C15.8998 33.7 17.8998 33.7 17.8998 33.7C17.8998 33.7 17.2998 36.3 16.1998 38.8C15.6998 41.2 14.4998 45.8 13.8998 49.3C12.6998 54.2 12.6998 55.1 13.6998 56.3Z" fill="#CACACA"/>
</svg>
