<svg width="34" height="58" viewBox="0 0 34 58" fill="none" xmlns="http://www.w3.org/2000/svg">
<path d="M16.0999 57C16.6999 56.5 17.2999 53.9 18.3999 51C18.9999 48.1 20.6999 41.5 22.0999 38.3C23.4999 32.9 24.2999 32.2 25.9999 26C27.5999 20.4 31.6999 8.7 32.7999 6.30001C33.5999 4.60001 33.7999 3.6 33.3999 3.1C33.1999 1.90001 30.9999 0.600006 30.4999 0.500007C29.9999 0.400002 26.1999 2.5 21.2999 5.50001C16.5999 9 11.9999 12.1 11.2999 12.9C10.0999 13.7 8.8999 14.9 8.4999 14.9C7.1999 15.6 1.3999 19.9 0.799903 20.1C-9.71556e-05 21.5 0.699903 23.1 2.3999 24.6C3.5999 25.3 3.5999 25.3 7.1999 22.5C9.5999 21.1 13.0999 18.2 15.3999 16.8C19.5999 13.6 24.7999 10.8 24.7999 10.8C24.7999 10.8 23.8999 14.5 22.6999 18.4C21.2999 22.6 19.7999 27.7 19.2999 29.5C17.6999 34.8 16.2999 39 15.6999 39.3C15.6999 39.3 14.2999 44.1 13.4999 48C12.1999 54.2 11.9999 54.6 12.8999 55.4C14.1999 56.7 15.3999 57.5 16.0999 57Z" fill="#CACACA"/>
</svg>
