<svg width="37" height="53" viewBox="0 0 37 53" fill="none" xmlns="http://www.w3.org/2000/svg">
<path d="M10.2998 52.4001C14.5998 52.1001 19.9998 50.6001 23.6998 48.5001C30.5998 44.4001 32.6998 38.6001 29.8998 32.4001C28.4998 30.5001 24.9998 27.0001 21.1998 25.6001C20.0998 24.7001 18.6998 23.8001 18.6998 23.8001C18.6998 23.4001 22.3998 21.3001 23.7998 20.2001C27.9998 17.9001 29.3998 16.8001 32.6998 14.7001C36.5998 11.2001 36.7998 10.7001 36.1998 7.80008C35.3998 3.60008 32.0998 1.00008 25.9998 0.300084C23.4998 0.100081 15.7998 0.400083 13.0998 1.10008C10.7998 2.20008 7.19983 4.00009 6.89983 4.80008C6.49983 5.80008 8.29983 8.80008 9.29983 9.10008C9.79983 9.10008 13.6998 7.90008 13.8998 7.40008C13.9998 6.90008 19.9998 5.50008 20.9998 5.90008H21.3998C21.3998 5.40008 25.0998 5.60008 28.4998 5.90008C31.8998 6.60008 31.6998 7.00008 29.2998 10.2001C27.3998 11.8001 24.6998 13.5001 16.3998 18.1001C7.19983 23.1001 5.99983 23.7001 6.19983 24.6001C6.49983 25.2001 7.19983 26.5001 7.99983 27.4001C9.69983 28.3001 10.0998 28.4001 11.2998 28.2001C13.9998 28.0001 20.4998 29.7001 23.0998 31.5001C26.8998 34.0001 27.3998 37.7001 23.7998 41.2001C19.9998 45.0001 10.5998 48.0001 3.89982 46.6001C0.999825 46.2001 0.499826 46.1001 0.399825 48.2001C0.0998247 50.6001 5.19982 52.4001 10.2998 52.4001Z" fill="#CACACA"/>
</svg>
