<svg width="40" height="51" viewBox="0 0 40 51" fill="none" xmlns="http://www.w3.org/2000/svg">
<path d="M3.90007 50.6999C5.30007 51.0999 14.7001 48.3999 17.0001 47.4999C20.3001 46.3999 22.5001 45.8999 24.9001 46.1999C26.5001 46.0999 28.6001 46.1999 29.1001 45.8999C30.2001 45.6999 31.8001 45.5999 33.4001 45.5999C38.7001 46.5999 40.3001 45.9999 38.2001 44.1999C37.4001 43.2999 37.1001 42.5999 37.1001 42.5999C37.1001 42.0999 36.1001 41.8999 34.7001 41.4999C32.1001 40.6999 28.1001 40.0999 27.9001 40.9999C27.9001 40.9999 27.7001 41.4999 27.4001 40.7999C26.5001 40.0999 15.5001 41.4999 11.6001 42.8999C10.4001 43.2999 9.80007 43.4999 10.0001 42.8999C9.50007 42.8999 18.2001 32.7999 20.0001 31.8999C21.4001 30.6999 30.9001 20.2999 32.2001 18.6999C35.5001 13.7999 36.3001 10.4999 34.2001 7.29992C32.9001 4.49992 29.7001 1.19992 28.1001 1.29992C28.1001 1.29992 26.7001 0.799919 25.2001 0.799919C21.4001 -0.400084 17.0001 0.999917 11.6001 4.49992L8.50007 6.19992L9.50007 8.29991C10.3001 9.09992 11.0001 10.2999 11.5001 10.4999C12.5001 10.6999 14.1001 9.69992 16.0001 9.29992C20.7001 5.99992 24.4001 6.19992 27.6001 7.29992C30.5001 8.19992 30.5001 8.19992 30.1001 9.59992C29.8001 10.5999 28.8001 12.7999 27.7001 14.3999C26.4001 15.6999 24.8001 18.0999 24.6001 19.0999C23.8001 19.8999 22.4001 20.9999 21.8001 21.3999C21.1001 21.7999 20.6001 22.3999 20.6001 22.3999C20.4001 23.2999 18.0001 25.8999 15.2001 28.8999C12.5001 31.6999 9.20007 34.6999 8.20007 35.9999C7.50007 36.7999 6.20007 37.9999 5.50007 39.0999C4.90007 39.4999 4.20007 39.7999 4.10007 40.2999C4.00007 40.7999 1.50007 44.5999 1.00007 44.1999C0.500071 44.1999 -0.199928 46.6999 0.200072 47.2999C0.800072 48.5999 3.10007 50.3999 3.90007 50.6999Z" fill="#CACACA"/>
</svg>
