<svg width="224" height="90" viewBox="0 0 224 90" fill="none" xmlns="http://www.w3.org/2000/svg">
<g clip-path="url(#clip0)">
<path d="M91.5207 33V49.5912C91.5207 51.3628 91.1247 52.9669 90.3328 54.4033C89.5649 55.8158 88.389 56.9411 86.8051 57.779C85.2452 58.593 83.2654 59 80.8656 59C77.4578 59 74.866 58.1381 73.0902 56.4144C71.3143 54.6667 70.4264 52.3683 70.4264 49.5193V33H75.862V48.6934C75.862 50.8002 76.2939 52.2845 77.1579 53.1464C78.0218 54.0083 79.3057 54.4392 81.0096 54.4392C82.7854 54.4392 84.0693 53.9724 84.8612 53.0387C85.6772 52.105 86.0851 50.6446 86.0851 48.6575V33H91.5207Z" fill="#4C71D6"/>
<path d="M107.426 58.6409H95.7273V55.5525L98.8591 54.116V37.5249L95.7273 36.0884V33H107.426V36.0884L104.295 37.5249V54.116L107.426 55.5525V58.6409Z" fill="#4C71D6"/>
<path d="M117.426 58.6458V33.3542H122.854V54.218H133.279V58.6458H117.426Z" fill="white"/>
<path d="M152.525 58.6458H137.751V33.3542H152.525V37.7466H143.179V43.3079H151.878V47.7003H143.179V54.218H152.525V58.6458Z" fill="white"/>
<path d="M173.574 58.6458L171.705 52.624H162.359L160.49 58.6458H154.631L163.689 33.248H170.339L179.434 58.6458H173.574ZM170.411 48.1253L168.542 42.2452C168.422 41.8438 168.266 41.3361 168.075 40.7221C167.883 40.1081 167.691 39.4823 167.5 38.8447C167.308 38.2071 167.152 37.6521 167.032 37.1798C166.912 37.6521 166.745 38.2425 166.529 38.951C166.337 39.6358 166.146 40.297 165.954 40.9346C165.786 41.5486 165.654 41.9855 165.558 42.2452L163.725 48.1253H170.411Z" fill="white"/>
<path d="M203.965 45.752C203.965 50.0263 202.73 53.2498 200.262 55.4223C197.818 57.5713 194.379 58.6458 189.945 58.6458H182.684V33.3542H190.736C193.42 33.3542 195.745 33.8265 197.71 34.7711C199.699 35.7157 201.233 37.109 202.311 38.951C203.413 40.7693 203.965 43.0363 203.965 45.752ZM198.321 45.8937C198.321 43.0836 197.698 41.0291 196.452 39.7302C195.206 38.4078 193.396 37.7466 191.024 37.7466H188.112V54.218H190.449C195.697 54.218 198.321 51.4432 198.321 45.8937Z" fill="white"/>
<path d="M224.426 51.6322C224.426 53.8756 223.6 55.6703 221.946 57.0163C220.317 58.3388 217.992 59 214.973 59C212.265 59 209.844 58.4923 207.711 57.4768V52.4823C208.934 53.0018 210.192 53.4859 211.486 53.9346C212.804 54.3597 214.11 54.5722 215.404 54.5722C216.746 54.5722 217.692 54.3243 218.244 53.8283C218.819 53.3088 219.106 52.6594 219.106 51.8801C219.106 51.2425 218.879 50.6994 218.423 50.2507C217.992 49.802 217.405 49.3887 216.662 49.0109C215.919 48.6094 215.068 48.1844 214.11 47.7357C213.511 47.4523 212.864 47.1217 212.169 46.7439C211.474 46.3424 210.803 45.8583 210.156 45.2916C209.533 44.7012 209.017 43.9927 208.61 43.1662C208.203 42.3397 207.999 41.3479 207.999 40.1907C207.999 37.9237 208.778 36.1644 210.335 34.9128C211.893 33.6376 214.014 33 216.698 33C218.04 33 219.31 33.1535 220.508 33.4605C221.73 33.7675 223.001 34.2044 224.319 34.7711L222.557 38.951C221.383 38.4787 220.329 38.1126 219.394 37.8529C218.459 37.5931 217.501 37.4632 216.518 37.4632C215.488 37.4632 214.697 37.6994 214.146 38.1717C213.595 38.644 213.319 39.2579 213.319 40.0136C213.319 40.911 213.726 41.6194 214.541 42.139C215.356 42.6585 216.566 43.2961 218.172 44.0518C219.49 44.6658 220.604 45.3034 221.515 45.9646C222.449 46.6258 223.168 47.4051 223.672 48.3025C224.175 49.1998 224.426 50.3097 224.426 51.6322Z" fill="white"/>
<path fill-rule="evenodd" clip-rule="evenodd" d="M62.6147 20.1883L36.7695 79.196L30.914 50.038L0.28263 42.1438L62.6147 20.1883ZM39.408 55.146L37.1868 44.0853L25.2782 41.0163L49.3033 32.5538L39.408 55.146Z" fill="url(#paint0_linear)"/>
</g>
<defs>
<linearGradient id="paint0_linear" x1="48.5869" y1="31.8374" x2="32.3431" y2="48.0811" gradientUnits="userSpaceOnUse">
<stop stop-color="#F01261"/>
<stop offset="1" stop-color="#471950"/>
</linearGradient>
<clipPath id="clip0">
<path d="M0 0H224V90H0V0Z" fill="white"/>
</clipPath>
</defs>
</svg>
