<svg width="168" height="68" viewBox="0 0 168 68" fill="none" xmlns="http://www.w3.org/2000/svg">
<g clip-path="url(#clip0)">
<path d="M68.6406 24.9333V37.4689C68.6406 38.8075 68.3436 40.0194 67.7496 41.1047C67.1737 42.172 66.2918 43.0222 65.1038 43.6553C63.9339 44.2703 62.4491 44.5778 60.6492 44.5778C58.0934 44.5778 56.1496 43.9266 54.8177 42.6242C53.4858 41.3037 52.8198 39.5672 52.8198 37.4146V24.9333H56.8965V36.7906C56.8965 38.3824 57.2205 39.5039 57.8684 40.1551C58.5164 40.8063 59.4793 41.1319 60.7572 41.1319C62.0891 41.1319 63.052 40.7791 63.646 40.0737C64.2579 39.3682 64.5639 38.2648 64.5639 36.7634V24.9333H68.6406Z" fill="#4C71D6"/>
<path d="M80.5698 44.3065H71.7955V41.973L74.1443 40.8877V28.3521L71.7955 27.2668V24.9333H80.5698V27.2668L78.221 28.3521V40.8877L80.5698 41.973V44.3065Z" fill="#4C71D6"/>
<path d="M88.0698 44.3102V25.201H92.1407V40.9647H99.9591V44.3102H88.0698Z" fill="white"/>
<path d="M114.394 44.3102H103.314V25.201H114.394V28.5197H107.385V32.7215H113.909V36.0402H107.385V40.9647H114.394V44.3102Z" fill="white"/>
<path d="M130.181 44.3102L128.779 39.7604H121.769L120.368 44.3102H115.973L122.767 25.1207H127.755L134.575 44.3102H130.181ZM127.808 36.3614L126.407 31.9186C126.317 31.6153 126.2 31.2317 126.056 30.7678C125.912 30.3039 125.768 29.8311 125.625 29.3493C125.481 28.8676 125.364 28.4483 125.274 28.0914C125.184 28.4483 125.059 28.8944 124.897 29.4296C124.753 29.9471 124.609 30.4466 124.465 30.9284C124.34 31.3923 124.241 31.7224 124.169 31.9186L122.794 36.3614H127.808Z" fill="white"/>
<path d="M152.973 34.5682C152.973 37.7977 152.048 40.2332 150.197 41.8747C148.363 43.4983 145.784 44.3102 142.459 44.3102H137.013V25.201H143.052C145.065 25.201 146.809 25.5578 148.282 26.2715C149.774 26.9852 150.924 28.0379 151.733 29.4296C152.56 30.8035 152.973 32.5164 152.973 34.5682ZM148.741 34.6753C148.741 32.552 148.273 30.9998 147.339 30.0184C146.404 29.0193 145.047 28.5197 143.268 28.5197H141.084V40.9647H142.837C146.773 40.9647 148.741 38.8682 148.741 34.6753Z" fill="white"/>
<path d="M168.32 39.011C168.32 40.706 167.7 42.062 166.46 43.079C165.237 44.0782 163.494 44.5778 161.229 44.5778C159.198 44.5778 157.383 44.1942 155.784 43.427V39.6533C156.7 40.0458 157.644 40.4116 158.614 40.7506C159.603 41.0718 160.582 41.2323 161.553 41.2323C162.559 41.2323 163.269 41.045 163.683 40.6703C164.114 40.2778 164.33 39.7871 164.33 39.1983C164.33 38.7166 164.159 38.3062 163.818 37.9672C163.494 37.6282 163.054 37.316 162.497 37.0305C161.939 36.7272 161.301 36.406 160.582 36.067C160.133 35.8529 159.648 35.6031 159.127 35.3176C158.605 35.0143 158.102 34.6485 157.617 34.2203C157.15 33.7742 156.763 33.239 156.458 32.6145C156.152 31.99 155.999 31.2406 155.999 30.3663C155.999 28.6535 156.583 27.3242 157.752 26.3786C158.92 25.4151 160.51 24.9333 162.523 24.9333C163.53 24.9333 164.483 25.0493 165.381 25.2813C166.298 25.5132 167.25 25.8433 168.239 26.2715L166.918 29.4296C166.037 29.0728 165.246 28.7962 164.545 28.6C163.845 28.4037 163.126 28.3056 162.389 28.3056C161.616 28.3056 161.023 28.484 160.609 28.8408C160.196 29.1977 159.989 29.6616 159.989 30.2325C159.989 30.9105 160.295 31.4458 160.906 31.8383C161.517 32.2309 162.425 32.7126 163.629 33.2836C164.617 33.7475 165.453 34.2292 166.136 34.7288C166.837 35.2284 167.376 35.8172 167.754 36.4952C168.131 37.1732 168.32 38.0118 168.32 39.011Z" fill="white"/>
<path fill-rule="evenodd" clip-rule="evenodd" d="M46.961 15.2534L27.5771 59.8369L23.1855 37.8065L0.211973 31.842L46.961 15.2534ZM29.556 41.6659L27.8901 33.3089L18.9587 30.9901L36.9775 24.5962L29.556 41.6659Z" fill="url(#paint0_linear)"/>
</g>
<defs>
<linearGradient id="paint0_linear" x1="36.4402" y1="24.0549" x2="24.1674" y2="36.2374" gradientUnits="userSpaceOnUse">
<stop stop-color="#F01261"/>
<stop offset="1" stop-color="#471950"/>
</linearGradient>
<clipPath id="clip0">
<path d="M0 0H168V68H0V0Z" fill="white"/>
</clipPath>
</defs>
</svg>
