<svg width="121" height="40" viewBox="0 0 121 40" fill="none" xmlns="http://www.w3.org/2000/svg">
<path d="M42.2 20.85H49.1V23.25H42.2V30.6H49.1L49.7 27.6H51.65V33H36.5V31.2L39.05 30.6V14.4L36.5 13.8V12.15L42.2 12H51.35V17.1H49.4L48.65 14.4H42.2V20.85ZM65.457 22.05L65.007 19.5C64.207 19.3 63.307 19.2 62.307 19.2C60.867 19.2 59.757 19.67 58.977 20.61C58.197 21.53 57.807 22.91 57.807 24.75C57.807 26.75 58.217 28.28 59.037 29.34C59.857 30.38 60.997 30.9 62.457 30.9C63.297 30.9 64.107 30.75 64.887 30.45C65.667 30.15 66.237 29.85 66.597 29.55L67.107 29.1L68.157 30.9C68.077 30.96 67.967 31.05 67.827 31.17C67.707 31.27 67.427 31.46 66.987 31.74C66.567 32.02 66.137 32.27 65.697 32.49C65.257 32.69 64.707 32.87 64.047 33.03C63.407 33.21 62.777 33.3 62.157 33.3C59.717 33.3 57.857 32.58 56.577 31.14C55.297 29.68 54.657 27.65 54.657 25.05C54.657 22.61 55.367 20.63 56.787 19.11C58.207 17.57 60.097 16.8 62.457 16.8C63.257 16.8 64.077 16.9 64.917 17.1C65.777 17.3 66.437 17.5 66.897 17.7L67.557 18L67.407 22.05H65.457ZM77.6 16.8C79.82 16.8 81.55 17.52 82.79 18.96C84.03 20.38 84.65 22.31 84.65 24.75C84.65 27.31 83.96 29.38 82.58 30.96C81.2 32.52 79.39 33.3 77.15 33.3C74.87 33.3 73.1 32.62 71.84 31.26C70.58 29.88 69.95 27.86 69.95 25.2C69.95 22.66 70.66 20.63 72.08 19.11C73.5 17.57 75.34 16.8 77.6 16.8ZM77.45 19.2C74.55 19.2 73.1 21.15 73.1 25.05C73.1 28.95 74.5 30.9 77.3 30.9C78.76 30.9 79.82 30.4 80.48 29.4C81.16 28.4 81.5 26.9 81.5 24.9C81.5 21.1 80.15 19.2 77.45 19.2ZM94.9194 31.35V33H86.6094V31.35L89.1594 30.6V12.3L86.6094 11.7V10.05L92.2194 9.9V30.6L94.9194 31.35ZM104.119 31.35V33H95.8086V31.35L98.3586 30.6V12.3L95.8086 11.7V10.05L101.419 9.9V30.6L104.119 31.35ZM118.958 25.5H108.608C108.608 27.14 109.008 28.45 109.808 29.43C110.608 30.41 111.658 30.9 112.958 30.9C113.838 30.9 114.698 30.76 115.538 30.48C116.378 30.2 116.998 29.92 117.398 29.64L117.998 29.25L119.048 30.81C118.848 30.99 118.558 31.22 118.178 31.5C117.798 31.78 117.048 32.15 115.928 32.61C114.808 33.07 113.718 33.3 112.658 33.3C110.298 33.3 108.508 32.59 107.288 31.17C106.068 29.73 105.458 27.74 105.458 25.2C105.458 22.78 106.138 20.78 107.498 19.2C108.878 17.6 110.648 16.8 112.808 16.8C117.008 16.8 119.108 19.15 119.108 23.85C119.108 24.07 119.088 24.31 119.048 24.57C119.028 24.83 119.008 25.05 118.988 25.23L118.958 25.5ZM108.728 23.25H115.928C115.928 22.03 115.668 21.04 115.148 20.28C114.628 19.52 113.798 19.14 112.658 19.14C111.498 19.14 110.578 19.53 109.898 20.31C109.218 21.09 108.828 22.07 108.728 23.25Z" fill="white"/>
<path d="M12.9109 8.1977C7.57069 7.92209 3.63972 9.56436 3.59795 9.58372L2.08646 10.267C2.27773 9.95955 3.17803 8.92317 3.17803 8.92317C4.66983 7.26952 6.55971 6.05722 8.65347 5.41084C8.02799 4.95529 7.5542 4.76168 6.75833 4.44051C6.31863 4.26512 5.77999 4.04646 5.06877 3.72188C3.61334 3.05677 3.80791 1.353 4.24762 0C3.65731 0.884914 3.40118 1.72199 3.47813 2.50555C3.61884 3.87221 4.76097 4.6774 5.10834 4.89721L5.64698 5.19446L5.20727 5.47348C2.22497 7.372 0.784934 9.92425 0.316648 10.6782C-0.38798 12.0061 0.157255 12.2043 1.22464 11.8888C2.82407 11.2841 5.57773 10.6121 6.12626 10.4994L6.23618 10.4789L7.4113 10.3115L6.44834 11.0221C6.40327 11.0517 2.05129 13.9627 0.622243 18.0616C-0.147242 20.2756 -0.0439102 22.2675 1.01688 24.3198C0.910103 24.8633 0.836672 25.4134 0.797027 25.9666C0.731071 27.7022 0.917946 31.5972 3.56387 34.0322C5.28752 35.6186 7.69821 36.2462 10.7542 35.9136C11.3203 35.8521 12.8603 35.4797 14.1443 34.9592C14.1443 34.9592 15.3799 34.4946 17.552 33.1803C17.8356 33.0155 18.1159 32.8417 18.3929 32.6587C18.4006 32.6587 18.4072 32.6484 18.4127 32.6484C18.7059 32.4548 18.9887 32.2513 19.2614 32.038C22.114 29.9994 24.0586 27.4266 23.8607 27.6385C23.6848 27.8719 21.2576 29.996 18.327 31.3797C18.327 31.3797 14.0882 33.3625 10.6827 33.4889C8.34567 33.6176 6.5055 33.0015 5.36007 31.9537C3.81451 30.5403 3.56717 28.1578 3.57157 26.7148C6.34611 28.1635 10.5662 27.7034 10.5662 27.7034H10.6025C13.218 27.4092 15.7475 26.5622 18.0346 25.2149C23.6848 21.9349 24.6456 17.8737 23.6628 15.1665C22.4921 11.948 18.6392 10.3695 14.2927 11.3285C11.3478 11.9799 8.95576 13.522 7.05733 15.3385C5.76294 16.597 4.61887 18.0117 3.64962 19.5524C3.27257 20.1446 2.94609 20.7152 2.65368 21.2607C2.62352 21.059 2.60553 20.8555 2.59982 20.6514C2.59982 18.1219 3.84748 14.0128 11.14 9.92538C11.1356 9.91741 13.6155 8.72386 12.9109 8.1977ZM4.30588 24.0681C3.53639 22.6911 9.32182 15.2793 14.8489 14.0573C18.3666 13.2828 20.575 14.5982 21.1378 16.1494C21.8798 18.188 20.1485 20.7915 16.7144 22.7811C13.3275 24.7446 10.3046 25.0281 8.41932 25.0054C6.79241 24.9302 4.55761 24.5213 4.30588 24.0681Z" fill="white"/>
</svg>
