<svg width="60" height="60" viewBox="0 0 60 60" fill="none" xmlns="http://www.w3.org/2000/svg">
<path d="M25 51.5C25 52.1066 25.3654 52.6538 25.9258 52.886C26.1118 52.9628 26.3062 53 26.5 53C26.89 53 27.274 52.8476 27.5608 52.5608L36.1215 44.0001H47.4999C48.1065 44.0001 48.6537 43.6347 48.8859 43.0743C49.1181 42.5139 48.9897 41.8689 48.5607 41.4399L27.5608 20.44C27.1318 20.011 26.4856 19.882 25.9264 20.1148C25.3654 20.3464 25 20.8936 25 21.5002V51.5ZM28 25.1218L43.8783 41.0001H35.4999C35.1021 41.0001 34.7205 41.1579 34.4391 41.4393L28 47.8785V25.1218Z" fill="#343434"/>
<path d="M34 21.5002C34 22.3288 34.6714 23.0002 35.5 23.0002H41.5C42.3286 23.0002 42.9999 22.3288 42.9999 21.5002C42.9999 20.6716 42.3286 20.0002 41.5 20.0002H35.5C34.6714 20.0002 34 20.6716 34 21.5002Z" fill="#FFC709"/>
<path d="M10 21.5002C10 22.3288 10.6714 23.0002 11.5 23.0002H17.5C18.3286 23.0002 18.9999 22.3288 18.9999 21.5002C18.9999 20.6716 18.3286 20.0002 17.5 20.0002H11.5C10.6714 20.0002 10 20.6716 10 21.5002Z" fill="#FFC709"/>
<path d="M26.5 14.0003C27.3286 14.0003 28 13.3289 28 12.5003V6.5003C28 5.6717 27.3286 5.00031 26.5 5.00031C25.6714 5.00031 25 5.6717 25 6.5003V12.5003C25 13.3289 25.6714 14.0003 26.5 14.0003Z" fill="#FFC709"/>
<path d="M35.9391 9.93947L31.4392 14.4394C30.853 15.025 30.853 15.9748 31.4392 16.5604C31.732 16.8538 32.116 17.0002 32.5 17.0002C32.884 17.0002 33.268 16.8538 33.5607 16.561L38.0607 12.0611C38.6469 11.4755 38.6469 10.5257 38.0607 9.94007C37.4751 9.35388 36.5247 9.35388 35.9391 9.93947Z" fill="#FFC709"/>
<path d="M19.4391 26.4394L14.9392 30.9393C14.353 31.5249 14.353 32.4747 14.9392 33.0603C15.232 33.3537 15.616 33.5001 16 33.5001C16.384 33.5001 16.7679 33.3537 17.0607 33.0609L21.5607 28.561C22.1469 27.9754 22.1469 27.0256 21.5607 26.44C20.9751 25.8538 20.0247 25.8538 19.4391 26.4394Z" fill="#FFC709"/>
<path d="M21.5611 14.4395L17.0611 9.93949C16.4755 9.35329 15.5251 9.35329 14.9401 9.93949C14.3539 10.5251 14.3539 11.4749 14.9401 12.0605L19.4401 16.5604C19.7323 16.8538 20.1163 17.0002 20.5003 17.0002C20.8843 17.0002 21.2683 16.8538 21.5611 16.561C22.1467 15.9755 22.1467 15.0251 21.5611 14.4395Z" fill="#FFC709"/>
</svg>
