<svg width="60" height="60" viewBox="0 0 60 60" fill="none" xmlns="http://www.w3.org/2000/svg">
<path d="M19.3698 7C17.3238 7 15.6597 8.682 15.6597 10.75V48.25C15.6597 50.318 17.3238 52 19.3698 52H41.6304C43.6764 52 45.3405 50.318 45.3405 48.25V10.75C45.3405 8.682 43.6764 7 41.6304 7H19.3698ZM42.8671 48.25C42.8671 48.939 42.3121 49.5 41.6304 49.5H19.3698C18.6881 49.5 18.1331 48.939 18.1331 48.25V42H42.8671V48.25ZM42.8671 39.5H18.1331V14.5H42.8671V39.5ZM42.8671 10.75V12H18.1331V10.75C18.1331 10.061 18.6881 9.5 19.3698 9.5H41.6304C42.3121 9.5 42.8671 10.061 42.8671 10.75Z" fill="#343434"/>
<path d="M29.3033 47.2128H31.6969C32.358 47.2128 32.8937 46.5699 32.8937 45.7766C32.8937 44.9833 32.358 44.3404 31.6969 44.3404H29.3033C28.6421 44.3404 28.1064 44.9833 28.1064 45.7766C28.1064 46.5699 28.6421 47.2128 29.3033 47.2128Z" fill="#343434"/>
<path d="M21.6436 47.2128H24.0372C24.6983 47.2128 25.234 46.5699 25.234 45.7766C25.234 44.9833 24.6983 44.3404 24.0372 44.3404H21.6436C20.9825 44.3404 20.4468 44.9833 20.4468 45.7766C20.4468 46.5699 20.9825 47.2128 21.6436 47.2128Z" fill="#343434"/>
<path d="M36.9629 47.2128H39.3565C40.0177 47.2128 40.5533 46.5699 40.5533 45.7766C40.5533 44.9833 40.0177 44.3404 39.3565 44.3404H36.9629C36.3018 44.3404 35.7661 44.9833 35.7661 45.7766C35.7661 46.5699 36.3018 47.2128 36.9629 47.2128Z" fill="#343434"/>
<path d="M24.5958 27.1064C24.9226 27.1064 25.2494 26.9818 25.4985 26.7326L30.6048 21.6261C31.1036 21.1277 31.1036 20.3194 30.6048 19.821C30.1064 19.3221 29.2976 19.3221 28.7997 19.821L23.6935 24.9275C23.1946 25.4258 23.1946 26.2342 23.6935 26.7326C23.9422 26.9818 24.269 27.1064 24.5958 27.1064Z" fill="#FFC709"/>
<path d="M25.6268 31.5292C25.8884 31.7721 26.2316 31.8936 26.5747 31.8936C26.9178 31.8936 27.261 31.7721 27.5226 31.5292L38.2458 21.5716C38.7696 21.0857 38.7696 20.2976 38.2458 19.8116C37.7225 19.3252 36.8732 19.3252 36.3504 19.8116L25.6273 29.7692C25.1035 30.2546 25.1035 31.0432 25.6268 31.5292Z" fill="#FFC709"/>
</svg>
