<svg width="1920" height="740" viewBox="0 0 1920 740" fill="none" xmlns="http://www.w3.org/2000/svg">
<mask id="mask0" mask-type="alpha" maskUnits="userSpaceOnUse" x="0" y="0" width="1920" height="740">
<path d="M0 0H1920V740C862.629 740 442.971 740 0 740V0Z" fill="#C4C4C4"/>
</mask>
<g mask="url(#mask0)">
<rect width="1920" height="740" fill="white"/>
<path d="M527 703C302.431 733.4 79.562 639 -3 603V-119L1995 -131V811C1974.82 794.333 1861.01 603.232 1517 567C1032.64 515.986 807.711 665 527 703Z" fill="#031E4D"/>
<ellipse opacity="0.5" cx="847.5" cy="488" rx="157.5" ry="12" fill="url(#paint0_linear)"/>
<path d="M971.212 256.87C971.212 256.87 979.296 256.791 981.456 257.33C983.612 257.868 993.921 256.564 995.693 259.072C997.465 261.579 992.349 260.908 992.349 260.908C992.349 260.908 971.118 263.488 971.212 256.87" fill="url(#paint1_linear)"/>
<path d="M993.139 266.395C991.367 263.888 981.057 265.191 978.901 264.653C978.691 264.6 978.423 264.554 978.111 264.513C979.137 260.358 979.322 257.023 979.322 257.023C977.992 255.254 976.684 254.015 975.977 253.402C977.927 251.451 979.735 252.208 981.423 252.465C983.619 252.798 987.105 251.881 986.776 249.921C986.453 247.991 983.482 248.324 981.086 247.129C977.035 245.108 973.575 247.815 973.575 247.815C973.575 247.815 970.868 248.724 968.48 250.353C956.754 253.416 944.89 251.063 944.89 251.063L944.365 265.014C944.365 265.014 956.069 264.683 960.04 265.717C964.353 266.839 967.154 269.718 969.578 270.914C970.759 271.496 973.919 272.028 975.238 271.6C980.025 272.168 984.565 271.889 984.565 271.889C984.565 271.889 989.682 272.56 987.913 270.052C987.366 269.278 986.004 268.868 984.322 268.654C987.45 268.516 989.794 268.232 989.794 268.232C989.794 268.232 994.911 268.903 993.139 266.395" fill="url(#paint2_linear)"/>
<path d="M827.895 370.825L841.586 406.517L841.61 406.571C846.658 416.398 850.242 425.99 825.406 429.755C825.26 429.78 825.113 429.809 824.97 429.849L779.959 442.329C779.64 442.416 779.464 442.76 779.577 443.068L785.491 459.284C785.583 459.534 785.832 459.686 786.097 459.65C791.575 458.911 837.666 455.649 857.291 453.153C879.535 450.323 884.709 439.05 882.234 423.845L868.767 356.953C867.439 348.799 868.215 324.897 864.075 322.96C859.085 320.625 822.978 305.031 824.289 354.995C824.317 356.063 827.513 369.828 827.895 370.825" fill="url(#paint3_linear)"/>
<path d="M769.712 489.331C769.164 488.936 768.623 488.526 768.087 488.106C765.735 486.262 763.588 484.251 761.654 482.102C758.195 473.242 757.28 463.534 759.052 454.156C758.108 453.91 757.154 453.711 756.191 453.558C755.333 451.453 754.53 449.333 753.79 447.203C756.234 446.902 758.664 446.3 761.027 445.387C761.232 445.308 761.436 445.224 761.641 445.141C763.05 444.561 764.432 443.865 765.777 443.054C768.076 448.725 769.951 454.493 771.414 460.313C769.485 465.603 768.478 471.119 768.368 476.626C768.28 480.899 768.732 485.171 769.712 489.331" fill="url(#paint4_linear)"/>
<path d="M1072.1 484.443C1066.4 485.809 1060.55 486.838 1054.58 487.508C1049.15 488.117 1043.77 488.41 1038.44 488.407C1037.18 487.03 1035.81 485.762 1034.35 484.616C1033.32 485.754 1032.38 486.965 1031.52 488.236C1029.06 488.113 1026.61 487.932 1024.19 487.682C1025.01 485.149 1025.53 482.493 1025.71 479.757C1025.84 477.88 1025.81 475.967 1025.6 474.032C1032.38 474.38 1039.06 475.21 1045.6 476.492C1054.75 478.286 1063.62 480.964 1072.1 484.443" fill="url(#paint5_linear)"/>
<path d="M805.52 238.476C814.801 232.163 825.247 225.335 836.255 221.948C841.412 220.361 845.867 218.728 850.319 221.775C880.527 242.452 919.521 254.97 954.656 249.625C955.62 249.481 956.576 249.325 957.537 249.159C957.982 250.634 958.399 252.113 958.794 253.597C960.939 261.65 959.316 264.877 959.066 274.528C888.916 279.313 851.635 269.59 805.52 238.476Z" fill="url(#paint6_linear)"/>
<path d="M759.59 210.508C759.588 210.566 759.585 212.076 759.583 212.134C759.229 221.636 764.282 231.646 772.613 236.228C773.51 236.721 774.397 237.226 775.277 237.743C804.053 254.65 816.908 295.112 823.654 328.496C823.709 328.768 823.897 328.995 824.155 329.095C824.52 329.238 824.884 329.377 825.25 329.515C826.29 329.908 827.337 330.285 828.393 330.646C834.247 332.654 840.296 335.694 846.678 335.191C872.353 333.17 877.426 329.285 877.426 329.285C874.02 326.095 872.777 320.958 869.585 313.904C868.015 310.432 867.032 307.353 865.971 304.728C861.15 292.806 857.93 268.494 854.705 255.161C854.42 253.984 854.154 252.8 853.909 251.61C851.805 241.419 849.005 233.484 849.987 222.666L850.319 221.775C845.415 218.904 840.249 216.402 834.85 214.309L834.833 214.302C832.223 213.29 829.559 212.374 826.844 211.563C825.286 211.092 823.71 210.657 822.12 210.258C818.99 209.468 815.798 208.816 812.548 208.298C812.265 208.254 811.981 208.211 811.697 208.167C799.422 206.312 789.257 206.37 775.745 207.649C770.152 208.182 764.822 208.667 759.59 210.508" fill="url(#paint7_linear)"/>
<path d="M855.267 204.627C853.932 208.914 853.559 213.298 854.039 217.536C852.06 217.057 850.068 216.777 848.086 216.689C840.207 216.33 832.503 218.955 826.501 223.908C820.549 220.769 815.677 215.298 814.996 208.45C816.912 206.468 821.823 201.279 823.204 198.764C825.79 198.739 828.297 197.884 830.348 196.354C830.303 195.659 830.409 194.941 830.683 194.249C831.324 192.633 832.729 191.557 834.316 191.26C835.189 191.096 836.116 191.169 837.001 191.52C837.075 191.549 837.148 191.582 837.22 191.615C837.361 190.836 837.582 190.06 837.884 189.296C840.363 183.056 847.432 180.008 853.673 182.487C853.711 182.501 853.75 182.516 853.788 182.534C853.797 182.621 853.807 182.711 853.817 182.798C854.264 186.763 855.175 190.644 856.514 194.369C856.982 195.669 857.502 196.949 858.072 198.206C858.442 199.021 858.832 199.826 859.244 200.619C859.849 201.79 860.499 202.935 861.195 204.055C859.239 204.363 857.261 204.555 855.267 204.627" fill="url(#paint8_linear)"/>
<path d="M855.258 180.515C854.944 181.305 854.509 182.008 853.982 182.614L853.897 182.577C853.852 182.472 853.806 182.371 853.761 182.266C853.77 182.353 853.778 182.443 853.788 182.534C853.75 182.516 853.711 182.501 853.673 182.487C847.432 180.008 840.363 183.056 837.884 189.296C837.582 190.06 837.361 190.836 837.22 191.615C837.148 191.582 837.075 191.549 837.001 191.52C836.116 191.169 835.189 191.096 834.316 191.26C832.729 191.557 831.324 192.633 830.683 194.249C830.409 194.941 830.303 195.659 830.348 196.354C828.297 197.883 825.79 198.739 823.204 198.764C823.557 198.123 823.89 197.463 824.203 196.789C824.352 196.467 824.495 196.144 824.631 195.822C826.76 190.796 827.487 185.509 826.979 180.403C826.839 178.997 826.605 177.602 826.279 176.232C827.71 176.559 829.145 176.823 830.581 177.026C830.653 177.037 830.724 177.048 830.795 177.055C834.271 177.53 837.748 177.638 841.176 177.403C844.178 177.196 847.144 176.722 850.039 175.997C851.219 175.703 852.385 175.366 853.538 174.986C854.02 174.83 854.497 174.667 854.973 174.497C855.896 176.301 856.065 178.483 855.258 180.515" fill="url(#paint9_linear)"/>
<path d="M853.521 196.227C853.346 196.666 853.118 197.061 852.844 197.416C851.203 197.307 849.55 196.985 847.925 196.438C849.991 196.162 851.996 195.561 853.858 194.658C853.836 195.184 853.726 195.713 853.521 196.227" fill="#031E4D"/>
<path d="M821.205 227.702L824.392 223.495C817.439 220.272 813.786 208.794 813.786 208.794C811.874 223.868 821.205 227.702 821.205 227.702" fill="#031E4D"/>
<path d="M824.392 228.973C824.392 228.973 847.616 254.224 839.958 282.912C837.116 293.559 848.587 298.139 848.587 298.139C848.587 298.139 849.277 284.62 849.843 280.523C851.937 265.376 845.219 238.997 824.392 228.973Z" fill="#031E4D"/>
<path d="M828.399 224.575L827.397 228.989C827.397 228.989 834.597 219.407 833.98 218.963C833.362 218.519 828.399 224.575 828.399 224.575Z" fill="#031E4D"/>
<path d="M695.571 280.081C695.088 281.521 693.753 283.751 690.209 286.556C685.772 290.067 685.259 292.265 685.259 292.265C683.964 292.949 683.549 288.755 686.542 286.401C688.581 284.798 688.371 283.118 687.827 281.56C687.327 281.403 686.812 281.217 686.285 280.994C684.183 280.107 681.883 278.469 679.879 277.128L673.131 276.501C673.131 276.501 665.973 282.471 664.03 280.376C664.03 280.376 665.566 278.252 668.596 276.492C669.56 275.932 670.129 275.449 670.522 275.048C666.589 275.292 662.299 275.589 662.001 273.924C661.861 273.141 674.918 270.812 677.553 271.373C686.836 273.349 694.954 268.291 694.954 268.291L694.947 268.407C697.295 264.06 699.92 260.333 699.92 260.333C704.423 261.405 707.61 265.974 707.61 265.974L695.571 280.081Z" fill="url(#paint10_linear)"/>
<path d="M775.277 237.743C774.398 237.226 773.509 236.721 772.613 236.228C764.282 231.646 759.228 221.636 759.583 212.134C759.585 212.076 759.588 210.566 759.59 210.508C764.822 208.667 770.152 208.182 775.745 207.649C776.274 207.598 776.788 207.555 777.307 207.508C771.968 207.736 766.643 208.454 761.41 209.678C746.929 213.057 733.143 220.245 721.627 231.271C714.016 238.558 697.614 258.234 693.278 267.192C696.572 268.657 699.879 270.333 703.172 272.213C703.185 272.196 705.906 269.238 708.574 266.336C712.725 261.823 717.515 257.932 722.832 254.877C740.581 244.681 760.614 240.072 780.422 240.985C778.75 239.858 777.036 238.776 775.277 237.743" fill="url(#paint11_linear)"/>
<path d="M972.114 265.028C972.114 265.028 985.239 266.111 986.881 261.638C988.642 256.831 992.153 253.431 991.138 252.191C990.193 251.036 985.37 254.879 982.55 258.933C980.666 261.644 972.422 259.684 972.473 261.737C972.524 263.79 972.114 265.028 972.114 265.028Z" fill="url(#paint12_linear)"/>
<path d="M980.796 273.475H907.176C907.176 331.175 954.261 377.95 1012.34 377.95H1120.74C1123.52 377.95 1126.27 377.841 1129 377.631V315.595H1019.38C997.997 315.595 980.663 298.375 980.663 277.134C980.663 275.903 980.708 274.684 980.796 273.475" fill="url(#paint13_linear)"/>
<path d="M1031.99 225.321H1127.55V169.317C1124.85 169.106 1122.11 169 1119.35 169H1011.65C953.956 169 907.178 215.774 907.178 273.474H980.315C982.192 246.567 1004.61 225.321 1031.99 225.321Z" fill="#32E3F7"/>
<path d="M904.621 342.75C949.999 370.972 1010.83 421.363 1041.66 462.509C1041.66 462.509 1038.89 462.563 1021.12 466.19C1011.26 458.581 988.279 440.847 977.633 434.009C931.479 404.357 894.642 395.628 847.891 377.056C822.833 367.102 820.768 353.959 819.411 344.44C818.359 337.056 819.501 329.043 822.117 320.958C846.682 322.761 869.578 320.958 904.621 342.75Z" fill="url(#paint14_linear)"/>
<mask id="mask1" mask-type="alpha" maskUnits="userSpaceOnUse" x="-3" y="-131" width="1998" height="942">
<path d="M-1.16482 603.8L-3 603V-119L1995 -131V811C1974.82 794.333 1861.01 601.232 1517 565C1032.64 513.986 803.711 667 523 705C300.075 735.177 82.767 640.405 -1.16482 603.8Z" fill="#031E4D"/>
</mask>
<g mask="url(#mask1)">
<path fill-rule="evenodd" clip-rule="evenodd" d="M1522.94 12.2695C1538.9 2.00992 1554.26 -7.85929 1569 -17H2067L2259 291L2035 813L1569 603C1556.66 592.906 1543.98 582.191 1530.88 571.126C1432.24 487.814 1310.08 384.634 1136 377V314H1259C1283.3 314 1303 294.301 1303 270C1303 245.699 1283.3 226 1259 226H1136V169C1288.96 162.641 1418.86 79.1591 1522.94 12.2695Z" fill="url(#paint15_linear)"/>
</g>
<mask id="mask2" mask-type="alpha" maskUnits="userSpaceOnUse" x="0" y="-24" width="1440" height="700">
<rect y="-24" width="1440" height="700" fill="#FFD61E" fill-opacity="0.8"/>
<rect y="-24" width="1440" height="700" fill="#F9A970"/>
</mask>
<g mask="url(#mask2)">
<path d="M42.7259 213.083L85.1872 344.615L-49.4749 302.897L18.0071 278.753L22.7038 277.072L24.1872 272.331L42.7259 213.083Z" stroke="#213D89" stroke-opacity="0.3" stroke-width="20"/>
<path d="M648.376 160.608L599.652 180.937L610.958 128.025L623.543 149.942L624.244 151.164L625.553 151.676L648.376 160.608Z" stroke="#213D89" stroke-width="8"/>
<path d="M357.207 594.776L407.393 555.588L401.272 620.18L385.304 599.183L384.266 597.818L382.569 597.627L357.207 594.776Z" stroke="#3E1A51" stroke-width="8"/>
</g>
</g>
<defs>
<linearGradient id="paint0_linear" x1="690" y1="486.423" x2="1005" y2="486.423" gradientUnits="userSpaceOnUse">
<stop stop-color="#1E3F6A"/>
<stop offset="1" stop-color="#4C96B9"/>
</linearGradient>
<linearGradient id="paint1_linear" x1="978.51" y1="248.441" x2="988.846" y2="269.021" gradientUnits="userSpaceOnUse">
<stop stop-color="#011C4B"/>
<stop offset="1" stop-color="#F41361"/>
</linearGradient>
<linearGradient id="paint2_linear" x1="910.687" y1="299.315" x2="983.847" y2="249.433" gradientUnits="userSpaceOnUse">
<stop stop-color="#011C4B"/>
<stop offset="0.275955" stop-color="#011C4B"/>
<stop offset="1" stop-color="#F41361"/>
</linearGradient>
<linearGradient id="paint3_linear" x1="804.918" y1="365.002" x2="907.936" y2="499.704" gradientUnits="userSpaceOnUse">
<stop stop-color="#011C4B"/>
<stop offset="0.507629" stop-color="#011C4B"/>
<stop offset="1" stop-color="#F41361"/>
</linearGradient>
<linearGradient id="paint4_linear" x1="753.198" y1="431.636" x2="784.57" y2="523.216" gradientUnits="userSpaceOnUse">
<stop stop-color="#011C4B"/>
<stop offset="0.8839" stop-color="#F41361"/>
<stop offset="1" stop-color="#F41361"/>
</linearGradient>
<linearGradient id="paint5_linear" x1="1005" y1="484.711" x2="1111.11" y2="472.794" gradientUnits="userSpaceOnUse">
<stop stop-color="#011C4B"/>
<stop offset="1" stop-color="#F41361"/>
</linearGradient>
<linearGradient id="paint6_linear" x1="1154.9" y1="353.663" x2="863.217" y2="244.459" gradientUnits="userSpaceOnUse">
<stop stop-color="#011C4B"/>
<stop offset="0.251121" stop-color="#011C4B"/>
<stop offset="1" stop-color="#F41361"/>
</linearGradient>
<linearGradient id="paint7_linear" x1="772.901" y1="317.98" x2="849.871" y2="236.832" gradientUnits="userSpaceOnUse">
<stop stop-color="#011C4B"/>
<stop offset="0.8839" stop-color="#F41361"/>
<stop offset="1" stop-color="#F41361"/>
</linearGradient>
<linearGradient id="paint8_linear" x1="799.418" y1="206.515" x2="846.481" y2="201.886" gradientUnits="userSpaceOnUse">
<stop stop-color="#011C4B"/>
<stop offset="1" stop-color="#F41361"/>
</linearGradient>
<linearGradient id="paint9_linear" x1="823.233" y1="187.864" x2="858.142" y2="181.491" gradientUnits="userSpaceOnUse">
<stop stop-color="#011C4B"/>
<stop offset="1" stop-color="#F41361"/>
</linearGradient>
<linearGradient id="paint10_linear" x1="693.776" y1="261.004" x2="678.471" y2="277.88" gradientUnits="userSpaceOnUse">
<stop stop-color="#011C4B"/>
<stop offset="1" stop-color="#F41361"/>
</linearGradient>
<linearGradient id="paint11_linear" x1="641.403" y1="269.716" x2="879.608" y2="193.946" gradientUnits="userSpaceOnUse">
<stop stop-color="#011C4B"/>
<stop offset="0.757541" stop-color="#F41361"/>
<stop offset="1" stop-color="#F41361"/>
</linearGradient>
<linearGradient id="paint12_linear" x1="926.051" y1="302.545" x2="979.807" y2="261.713" gradientUnits="userSpaceOnUse">
<stop stop-color="#011C4B"/>
<stop offset="0.633569" stop-color="#011C4B"/>
<stop offset="1" stop-color="#F41361"/>
</linearGradient>
<linearGradient id="paint13_linear" x1="862.88" y1="314.675" x2="1170.05" y2="314.675" gradientUnits="userSpaceOnUse">
<stop stop-color="#011C4B"/>
<stop offset="0.757541" stop-color="#F41361"/>
<stop offset="1" stop-color="#F41361"/>
</linearGradient>
<linearGradient id="paint14_linear" x1="911.759" y1="424.602" x2="982.352" y2="307.905" gradientUnits="userSpaceOnUse">
<stop stop-color="#011C4B"/>
<stop offset="1" stop-color="#F41361"/>
</linearGradient>
<linearGradient id="paint15_linear" x1="1136" y1="343.468" x2="2259" y2="343.468" gradientUnits="userSpaceOnUse">
<stop stop-color="#4C96B9"/>
<stop offset="1" stop-color="#1E3F6A"/>
</linearGradient>
</defs>
</svg>
