<svg width="60" height="60" viewBox="0 0 60 60" fill="none" xmlns="http://www.w3.org/2000/svg">
<path d="M50.9997 14.0338C50.9997 13.0986 50.6357 12.2199 49.9744 11.5591L47.4414 9.02561C46.7801 8.36435 45.9014 8.00035 44.9662 8.00035C44.0311 8.00035 43.1523 8.36435 42.4911 9.02561L30.5834 20.9339L17.992 8.34195C17.5361 7.88602 16.7979 7.88602 16.3424 8.34195L9.34255 15.3419C8.88663 15.7978 8.88663 16.5361 9.34255 16.9915L21.9339 29.5835L12.2587 39.2584C12.1971 39.32 12.1453 39.3876 12.1 39.4586C12.087 39.4791 12.0781 39.5015 12.066 39.523C12.037 39.5757 12.0104 39.6294 11.9899 39.6849C11.9862 39.6952 11.9796 39.704 11.9764 39.7143L9.05976 48.4642C8.92022 48.8833 9.02942 49.3462 9.34162 49.6584C9.56468 49.8805 9.86287 50 10.1671 50C10.2908 50 10.4149 49.9804 10.5363 49.9403L19.2861 47.0236C19.2964 47.0204 19.3052 47.0138 19.3155 47.0101C19.3715 46.9896 19.4247 46.9634 19.4774 46.934C19.4989 46.9224 19.5213 46.913 19.5418 46.9C19.6123 46.8552 19.6799 46.8034 19.742 46.7413L29.4167 37.0664L42.0081 49.6579C42.2363 49.8861 42.5345 50 42.8331 50C43.1318 50 43.43 49.8861 43.6582 49.6584L50.6581 42.6585C51.114 42.2025 51.114 41.4643 50.6581 41.0088L38.0662 28.4168L49.9744 16.5085C50.6357 15.8473 50.9997 14.969 50.9997 14.0338ZM20.6669 25.0172L19.3999 23.7502L20.9082 22.242C21.3641 21.786 21.3641 21.0478 20.9082 20.5923C20.4523 20.1368 19.714 20.1364 19.2586 20.5923L17.7503 22.1006L16.4833 20.8336L17.9916 19.3253C18.4475 18.8694 18.4475 18.1311 17.9916 17.6757C17.5357 17.2202 16.7974 17.2197 16.3419 17.6757L14.8337 19.1839L11.8168 16.1669L17.167 10.8167L28.9338 22.5836L25.0922 26.4251L23.584 27.9334L22.3166 26.6669L23.8248 25.1586C24.2807 24.7027 24.2807 23.9644 23.8248 23.509C23.3689 23.0535 22.6306 23.053 22.1752 23.509L20.6669 25.0172ZM12.0118 46.9886L13.5938 42.2431L16.7573 45.4066L12.0118 46.9886ZM48.1834 41.8334L42.8331 47.1837L36.8996 41.2501L38.4078 39.7418C38.8638 39.2859 38.8638 38.5476 38.4078 38.0922C37.9519 37.6367 37.2137 37.6362 36.7582 38.0922L35.25 39.6004L33.983 38.3334L35.4912 36.8252C35.9471 36.3692 35.9471 35.631 35.4912 35.1755C35.0353 34.7201 34.2971 34.7196 33.8416 35.1755L32.3334 36.6838L31.0664 35.4168L32.5746 33.9085L36.4161 30.067L48.1834 41.8334ZM18.917 44.2666L14.7338 40.0834L40.7967 14.0198C40.8125 14.0376 40.8247 14.0576 40.8419 14.0749L44.9252 18.1582C44.9424 18.1755 44.9625 18.1876 44.9802 18.2035L18.917 44.2666ZM48.3248 14.8589L46.6201 16.5636C46.6042 16.5459 46.5921 16.5258 46.5748 16.5085L42.4916 12.4252C42.4743 12.408 42.4542 12.3958 42.4365 12.38L44.1412 10.6753C44.5822 10.2343 45.3503 10.2343 45.7913 10.6753L48.3248 13.2092C48.545 13.4295 48.6664 13.7221 48.6664 14.0338C48.6664 14.3456 48.545 14.6386 48.3248 14.8589Z" fill="#343434"/>
<path d="M43.5 44C44.3271 44 45 43.3271 45 42.5C45 41.6729 44.3271 41 43.5 41C42.6729 41 42 41.6729 42 42.5C42 43.3271 42.6729 44 43.5 44Z" fill="#FFC709"/>
</svg>
